<svg width="296" height="217" viewBox="0 0 296 217" fill="none" xmlns="http://www.w3.org/2000/svg">
<path d="M295.209 73.4591C293.819 89.7491 293.919 106.029 285.739 120.629C276.399 137.309 248.789 163.199 231.069 170.479C224.919 172.999 218.369 175.349 211.609 174.679C220.979 186.189 227.009 202.229 219.839 216.469C216.809 217.139 211.809 205.339 209.399 202.719C206.979 200.089 202.149 197.629 199.479 195.029C193.459 189.169 184.819 181.739 182.879 173.679C174.589 173.609 166.439 172.289 158.819 169.149C152.069 181.579 143.059 196.669 129.089 201.609C111.689 207.759 101.919 204.459 85.3392 200.259C82.5592 199.559 70.3092 198.759 69.6892 196.089C69.5092 194.589 70.8992 193.699 71.8692 192.779C75.7492 189.119 97.7692 185.589 104.809 182.809C118.589 177.389 133.669 160.869 146.179 157.059C146.749 156.889 147.969 156.759 147.799 157.589C144.749 161.459 139.769 162.679 135.779 165.369C126.549 171.599 117.779 179.799 107.539 184.429C96.8792 189.249 84.0792 190.779 73.0092 194.459L104.369 202.129C119.269 201.989 131.969 200.539 142.249 189.169C147.719 183.109 161.959 159.349 167.079 157.049C167.559 156.829 168.879 156.769 168.709 157.589L159.909 169.139C166.309 167.769 173.759 171.269 180.109 170.959C194.159 170.269 222.669 147.679 230.779 136.059C237.099 127.009 243.379 111.859 242.979 100.949C232.419 110.729 224.179 125.909 208.319 127.339C213.349 123.459 220.209 120.859 225.359 116.339C229.699 112.529 233.509 106.169 237.459 102.029C252.289 86.4991 274.559 78.0391 295.229 73.4491L295.209 73.4591ZM264.059 143.499C267.799 139.409 279.529 120.689 281.679 115.469C283.369 111.389 289.809 79.5191 288.609 77.8491C279.859 80.3891 271.439 82.0791 263.489 86.8191C261.519 109.869 256.399 132.569 239.709 149.409C237.599 151.539 234.429 152.939 232.289 154.939C225.989 160.839 221.029 166.799 212.719 170.809C214.469 173.199 214.469 172.019 216.359 171.189C231.279 164.619 260.509 131.709 266.049 116.349C269.689 106.259 270.849 93.8791 273.209 83.3491C275.209 83.6491 274.419 89.0491 274.279 90.4791C271.489 119.949 259.969 136.239 239.809 156.669C234.959 161.589 229.399 165.789 223.699 169.709C225.119 171.009 228.509 168.889 229.749 168.059C235.889 163.939 247.509 153.689 252.869 148.299C270.989 130.099 278.969 106.359 282.019 81.1491L283.089 91.5791C279.419 110.069 273.399 128.749 261.119 143.319C260.409 146.289 263.709 143.869 264.059 143.489V143.499ZM288.599 106.449C290.589 99.2591 291.309 91.9091 291.899 84.4591L288.789 96.1791C288.949 98.4891 288.039 100.799 287.829 102.929C287.709 104.139 286.529 106.669 288.599 106.449ZM199.509 171.359C201.999 172.119 203.389 172.739 206.109 172.009C214.689 169.709 240.739 145.069 246.169 137.179C256.579 122.079 257.659 104.999 262.199 87.7591L246.249 97.6491C245.559 120.419 232.179 144.349 213.529 157.349C206.749 162.079 197.129 167.009 189.609 170.279C189.419 172.409 192.999 171.169 194.069 170.879C203.559 168.339 223.949 154.439 230.889 147.179C245.409 131.989 247.649 114.049 252.329 94.3491C254.209 94.0791 253.409 96.8891 253.429 98.1891C253.559 105.579 246.899 129.839 242.869 136.049C234.899 148.329 224.429 155.839 213.079 164.569L199.519 171.339L199.509 171.359ZM210.499 174.669H186.849C186.709 174.669 183.959 172.509 184.119 175.219C184.129 175.439 186.189 178.089 186.689 178.679C193.689 187.069 205.059 193.819 211.619 201.609C214.559 205.089 216.089 209.099 219.289 212.079C223.359 197.519 216.379 187.179 210.499 174.669Z" fill="white"/>
<path d="M61.9692 21.759C61.6492 23.709 56.2392 22.979 54.7792 22.889C44.2792 22.229 27.9192 20.539 17.9492 17.919C13.0692 16.639 8.35921 13.399 3.13921 12.929C2.17921 21.299 8.70921 28.339 14.7992 33.179C28.2492 43.889 41.6392 47.279 58.6892 47.049L59.7792 40.449C60.1192 44.919 61.2792 49.369 62.5392 53.639C68.4092 73.559 81.5992 103.339 94.9592 119.129C107.089 133.459 123.909 146.689 137.889 159.249C133.959 158.269 129.099 155.439 125.889 153.059C112.529 143.149 91.0392 120.209 82.6892 106.089C72.0992 88.1891 63.6892 68.839 58.7092 48.609C41.3292 50.939 21.6992 44.729 9.13921 32.209C4.36921 27.459 -2.68079 17.219 1.04921 10.679C9.11921 9.64905 15.8592 15.219 23.3492 16.699C35.3892 19.079 49.9092 18.049 61.9792 21.769L61.9692 21.759Z" fill="white"/>
<path d="M288.609 66.8691C288.159 69.0491 286.359 68.7491 284.749 69.0491C262.259 73.2991 241.309 82.8991 218.229 87.2491C184.509 93.5991 161.119 88.7891 130.169 76.2191C122.729 73.1991 113.609 70.9791 108.179 64.6691C131.759 74.6091 158.699 86.4391 184.589 87.8091C201.629 88.7091 223.689 84.0091 240.229 79.5491C256.219 75.2391 271.689 66.6591 288.599 66.8691H288.609Z" fill="white"/>
<path d="M104.549 2.27906C113.129 14.2591 97.1192 41.2091 82.8892 43.1991L86.7192 45.9691L90.1792 41.7091C94.6592 40.8291 97.6292 50.9091 99.5592 54.0291C101.489 57.1491 107.029 60.5191 105.419 64.6691L91.1192 44.8591L89.5192 51.9191L87.2892 52.5491C87.0092 46.7491 78.9492 45.1191 74.6492 41.5191C73.0992 40.2191 64.9192 30.0191 70.2092 32.7591C72.4292 33.9091 76.3292 42.9891 82.1592 42.4191C83.8292 42.2591 94.0692 34.3491 95.5292 32.7491C100.299 27.5291 104.769 15.0791 103.709 8.05906C102.229 -1.71094 97.8092 5.95906 94.2392 8.34906C85.4692 14.2291 76.3692 19.4391 66.3792 22.8291C72.4192 16.0791 82.9392 13.2191 90.5092 7.91906C94.1592 5.36906 99.8092 -4.35094 104.549 2.26906V2.27906Z" fill="white"/>
<path d="M209.399 107.549C206.559 107.459 204.629 110.479 202.169 110.869C199.649 111.269 192.059 110.159 196.509 107.289C199.669 105.249 207.249 103.539 209.399 107.549Z" fill="white"/>
</svg>
