<svg width="296" height="217" viewBox="0 0 296 217" fill="none" xmlns="http://www.w3.org/2000/svg">
<path d="M295.209 73.45C293.819 89.74 293.919 106.02 285.739 120.62C276.399 137.3 248.789 163.19 231.069 170.47C224.919 172.99 218.369 175.34 211.609 174.67C220.979 186.18 227.009 202.22 219.839 216.46C216.809 217.13 211.809 205.33 209.399 202.71C206.979 200.08 202.149 197.62 199.479 195.02C193.459 189.16 184.819 181.73 182.879 173.67C174.589 173.6 166.439 172.28 158.819 169.14C152.069 181.57 143.059 196.66 129.089 201.6C111.689 207.75 101.919 204.45 85.3392 200.25C82.5592 199.55 70.3092 198.75 69.6892 196.08C69.5092 194.58 70.8992 193.69 71.8692 192.77C75.7492 189.11 97.7692 185.58 104.809 182.8C118.589 177.38 133.669 160.86 146.179 157.05C146.749 156.88 147.969 156.75 147.799 157.58C144.749 161.45 139.769 162.67 135.779 165.36C126.549 171.59 117.779 179.79 107.539 184.42C96.8792 189.24 84.0792 190.77 73.0092 194.45L104.369 202.12C119.269 201.98 131.969 200.53 142.249 189.16C147.719 183.1 161.959 159.34 167.079 157.04C167.559 156.82 168.879 156.76 168.709 157.58L159.909 169.13C166.309 167.76 173.759 171.26 180.109 170.95C194.159 170.26 222.669 147.67 230.779 136.05C237.099 127 243.379 111.85 242.979 100.94C232.419 110.72 224.179 125.9 208.319 127.33C213.349 123.45 220.209 120.85 225.359 116.33C229.699 112.52 233.509 106.16 237.459 102.02C252.289 86.49 274.559 78.03 295.229 73.44L295.209 73.45ZM264.059 143.49C267.799 139.4 279.529 120.68 281.679 115.46C283.369 111.38 289.809 79.51 288.609 77.84C279.859 80.38 271.439 82.07 263.489 86.81C261.519 109.86 256.399 132.56 239.709 149.4C237.599 151.53 234.429 152.93 232.289 154.93C225.989 160.83 221.029 166.79 212.719 170.8C214.469 173.19 214.469 172.01 216.359 171.18C231.279 164.61 260.509 131.7 266.049 116.34C269.689 106.25 270.849 93.87 273.209 83.34C275.209 83.64 274.419 89.04 274.279 90.47C271.489 119.94 259.969 136.23 239.809 156.66C234.959 161.58 229.399 165.78 223.699 169.7C225.119 171 228.509 168.88 229.749 168.05C235.889 163.93 247.509 153.68 252.869 148.29C270.989 130.09 278.969 106.35 282.019 81.14L283.089 91.57C279.419 110.06 273.399 128.74 261.119 143.31C260.409 146.28 263.709 143.86 264.059 143.48V143.49ZM288.599 106.44C290.589 99.25 291.309 91.9 291.899 84.45L288.789 96.17C288.949 98.48 288.039 100.79 287.829 102.92C287.709 104.13 286.529 106.66 288.599 106.44ZM199.509 171.35C201.999 172.11 203.389 172.73 206.109 172C214.689 169.7 240.739 145.06 246.169 137.17C256.579 122.07 257.659 104.99 262.199 87.75L246.249 97.64C245.559 120.41 232.179 144.34 213.529 157.34C206.749 162.07 197.129 167 189.609 170.27C189.419 172.4 192.999 171.16 194.069 170.87C203.559 168.33 223.949 154.43 230.889 147.17C245.409 131.98 247.649 114.04 252.329 94.34C254.209 94.07 253.409 96.88 253.429 98.18C253.559 105.57 246.899 129.83 242.869 136.04C234.899 148.32 224.429 155.83 213.079 164.56L199.519 171.33L199.509 171.35ZM210.499 174.66H186.849C186.709 174.66 183.959 172.5 184.119 175.21C184.129 175.43 186.189 178.08 186.689 178.67C193.689 187.06 205.059 193.81 211.619 201.6C214.559 205.08 216.089 209.09 219.289 212.07C223.359 197.51 216.379 187.17 210.499 174.66Z" fill="black"/>
<path d="M61.9692 21.75C61.6492 23.7 56.2392 22.97 54.7792 22.88C44.2792 22.22 27.9192 20.53 17.9492 17.91C13.0692 16.63 8.35921 13.39 3.13921 12.92C2.17921 21.29 8.70921 28.33 14.7992 33.17C28.2492 43.88 41.6392 47.27 58.6892 47.04L59.7792 40.44C60.1192 44.91 61.2792 49.36 62.5392 53.63C68.4092 73.55 81.5992 103.33 94.9592 119.12C107.089 133.45 123.909 146.68 137.889 159.24C133.959 158.26 129.099 155.43 125.889 153.05C112.529 143.14 91.0392 120.2 82.6892 106.08C72.0992 88.18 63.6892 68.83 58.7092 48.6C41.3292 50.93 21.6992 44.72 9.13921 32.2C4.36921 27.45 -2.68079 17.21 1.04921 10.67C9.11921 9.64001 15.8592 15.21 23.3492 16.69C35.3892 19.07 49.9092 18.04 61.9792 21.76L61.9692 21.75Z" fill="black"/>
<path d="M288.609 66.86C288.159 69.04 286.359 68.74 284.749 69.04C262.259 73.29 241.309 82.89 218.229 87.24C184.509 93.59 161.119 88.78 130.169 76.21C122.729 73.19 113.609 70.97 108.179 64.66C131.759 74.6 158.699 86.43 184.589 87.8C201.629 88.7 223.689 84 240.229 79.54C256.219 75.23 271.689 66.65 288.599 66.86H288.609Z" fill="black"/>
<path d="M104.549 2.26999C113.129 14.25 97.1192 41.2 82.8892 43.19L86.7192 45.96L90.1792 41.7C94.6592 40.82 97.6292 50.9 99.5592 54.02C101.489 57.14 107.029 60.51 105.419 64.66L91.1192 44.85L89.5192 51.91L87.2892 52.54C87.0092 46.74 78.9492 45.11 74.6492 41.51C73.0992 40.21 64.9192 30.01 70.2092 32.75C72.4292 33.9 76.3292 42.98 82.1592 42.41C83.8292 42.25 94.0692 34.34 95.5292 32.74C100.299 27.52 104.769 15.07 103.709 8.04999C102.229 -1.72001 97.8092 5.94999 94.2392 8.33999C85.4692 14.22 76.3692 19.43 66.3792 22.82C72.4192 16.07 82.9392 13.21 90.5092 7.90999C94.1592 5.35999 99.8092 -4.36001 104.549 2.25999V2.26999Z" fill="black"/>
<path d="M209.399 107.54C206.559 107.45 204.629 110.47 202.169 110.86C199.649 111.26 192.059 110.15 196.509 107.28C199.669 105.24 207.249 103.53 209.399 107.54Z" fill="black"/>
</svg>
